<svg xmlns="http://www.w3.org/2000/svg" viewBox="0 0 980 981" width="980" height="981">
	<defs>
		<linearGradient id="grd1" gradientUnits="userSpaceOnUse"  x1="918.75" y1="205.2" x2="918.75" y2="1">
			<stop offset="0" stop-color="#ff3e7d"  />
			<stop offset="1" stop-color="#ffb882"  />
		</linearGradient>
		<linearGradient id="grd2" gradientUnits="userSpaceOnUse"  x1="347.1" y1="981" x2="347.1" y2="776.8">
			<stop offset="0" stop-color="#ff3e7d"  />
			<stop offset="1" stop-color="#ffb882"  />
		</linearGradient>
		<linearGradient id="grd3" gradientUnits="userSpaceOnUse"  x1="530.8" y1="981" x2="530.8" y2="1">
			<stop offset="0" stop-color="#ff3e7d"  />
			<stop offset="1" stop-color="#ffb882"  />
		</linearGradient>
		<linearGradient id="grd4" gradientUnits="userSpaceOnUse"  x1="367.45" y1="208.2" x2="367.45" y2="167.4">
			<stop offset="0" stop-color="#ff3e7d"  />
			<stop offset="1" stop-color="#ffb882"  />
		</linearGradient>
		<linearGradient id="grd5" gradientUnits="userSpaceOnUse"  x1="326.7" y1="323.2" x2="326.7" y2="282.4">
			<stop offset="0" stop-color="#ff3e7d"  />
			<stop offset="1" stop-color="#ffb882"  />
		</linearGradient>
		<linearGradient id="grd6" gradientUnits="userSpaceOnUse"  x1="695.2" y1="323.2" x2="695.2" y2="282.4">
			<stop offset="0" stop-color="#ff3e7d"  />
			<stop offset="1" stop-color="#ffb882"  />
		</linearGradient>
		<linearGradient id="grd7" gradientUnits="userSpaceOnUse"  x1="322.2" y1="427.2" x2="322.2" y2="386.4">
			<stop offset="0" stop-color="#ff3e7d"  />
			<stop offset="1" stop-color="#ffb882"  />
		</linearGradient>
		<linearGradient id="grd8" gradientUnits="userSpaceOnUse"  x1="703.2" y1="427.2" x2="703.2" y2="386.4">
			<stop offset="0" stop-color="#ff3e7d"  />
			<stop offset="1" stop-color="#ffb882"  />
		</linearGradient>
		<linearGradient id="grd9" gradientUnits="userSpaceOnUse"  x1="503.7" y1="745" x2="503.7" y2="684.4">
			<stop offset="0" stop-color="#ff3e7d"  />
			<stop offset="1" stop-color="#ffb882"  />
		</linearGradient>
		<linearGradient id="grd10" gradientUnits="userSpaceOnUse"  x1="515.859" y1="663.819" x2="515.859" y2="216.074">
			<stop offset="0" stop-color="#ff3e7d"  />
			<stop offset="1" stop-color="#ffb882"  />
		</linearGradient>
		<linearGradient id="grd11" gradientUnits="userSpaceOnUse"  x1="519.314" y1="636.142" x2="519.314" y2="468.332">
			<stop offset="0" stop-color="#ff3e7d"  />
			<stop offset="1" stop-color="#ffb882"  />
		</linearGradient>
		<linearGradient id="grd12" gradientUnits="userSpaceOnUse"  x1="394.22" y1="598.62" x2="394.22" y2="486.894">
			<stop offset="0" stop-color="#ff3e7d"  />
			<stop offset="1" stop-color="#ffb882"  />
		</linearGradient>
	</defs>
	<style>
		tspan { white-space:pre }
		.shp0 { fill: url(#grd1) } 
		.shp1 { fill: url(#grd2) } 
		.shp2 { fill: url(#grd3) } 
		.shp3 { fill: url(#grd4) } 
		.shp4 { fill: url(#grd5) } 
		.shp5 { fill: url(#grd6) } 
		.shp6 { fill: #000000 } 
		.shp7 { fill: url(#grd7) } 
		.shp8 { fill: url(#grd8) } 
		.shp9 { fill: url(#grd9) } 
		.shp10 { fill: url(#grd10) } 
		.shp11 { fill: url(#grd11) } 
		.shp12 { fill: url(#grd12) } 
	</style>
	<g id="Layer">
		<path id="Layer" class="shp0" d="M877.9 205.2C866.7 205.2 857.5 196 857.5 184.8C857.5 173.6 866.7 164.4 877.9 164.4C911.7 164.4 939.2 136.9 939.2 103.1C939.2 69.3 911.7 41.8 877.9 41.8C866.7 41.8 857.5 32.6 857.5 21.4C857.5 10.1 866.7 1 877.9 1C934.2 1 980 46.8 980 103.1C980 159.3 934.2 205.2 877.9 205.2Z" />
		<path id="Layer" fill-rule="evenodd" class="shp1" d="M673.8 981L102.1 981C45.8 981 0 935.2 0 878.9C0 822.6 45.8 776.8 102.1 776.8L673.8 776.8C685 776.8 694.2 786 694.2 797.2C694.2 808.4 685 817.6 673.8 817.6C640 817.6 612.5 845.1 612.5 878.9C612.5 912.7 640 940.2 673.8 940.2C685 940.2 694.2 949.4 694.2 960.6C694.2 971.8 685 981 673.8 981ZM102.1 817.7C68.3 817.7 40.8 845.2 40.8 879C40.8 912.8 68.3 940.3 102.1 940.3L592.1 940.3C579.3 923.2 571.6 902 571.6 879C571.6 856 579.3 834.8 592.1 817.7L102.1 817.7Z" />
		<path id="Layer" class="shp2" d="M694.2 981L653.4 981C642.2 981 633 971.8 633 960.6C633 949.4 642.2 940.2 653.4 940.2L694.2 940.2C739.3 940.2 775.9 903.6 775.9 858.5L775.9 103.1C775.9 80.1 783.6 58.9 796.4 41.8L285.8 41.8C240.8 41.8 204.1 78.4 204.1 123.5L204.1 776.8C204.1 788 194.9 797.2 183.7 797.2C172.4 797.2 163.3 788 163.3 776.8L163.3 123.5C163.3 56 218.3 1 285.8 1L877.9 1C889.1 1 898.3 10.2 898.3 21.4C898.3 32.7 889.1 41.8 877.9 41.8C844.1 41.8 816.6 69.3 816.6 103.1L816.6 858.5C816.7 926 761.7 981 694.2 981Z" />
		<path id="Layer" class="shp3" d="M449.2 208.2L285.8 208.2C274.5 208.2 265.4 199 265.4 187.8C265.4 176.6 274.6 167.4 285.8 167.4L449.1 167.4C460.4 167.4 469.5 176.6 469.5 187.8C469.5 199 460.4 208.2 449.2 208.2Z" />
		<path id="Layer copy 2" class="shp4" d="M375.81 323.2L277.65 323.2C270.87 323.2 265.4 314 265.4 302.8C265.4 291.6 270.93 282.4 277.65 282.4L375.75 282.4C382.53 282.4 388 291.6 388 302.8C388 314 382.53 323.2 375.81 323.2Z" />
		<path id="Layer copy 5" class="shp5" d="M739.9 323.2L650.55 323.2C644.38 323.2 639.4 314 639.4 302.8C639.4 291.6 644.43 282.4 650.55 282.4L739.85 282.4C746.02 282.4 751 291.6 751 302.8C751 314 746.02 323.2 739.9 323.2Z" />
		<path id="Layer copy 3" class="shp6" d="M367.7 427.2L276.75 427.2C270.46 427.2 265.4 418 265.4 406.8C265.4 395.6 270.52 386.4 276.75 386.4L367.65 386.4C373.93 386.4 379 395.6 379 406.8C379 418 373.93 427.2 367.7 427.2Z" />
		<path id="Layer copy 4" class="shp7" d="M367.7 427.2L276.75 427.2C270.46 427.2 265.4 418 265.4 406.8C265.4 395.6 270.52 386.4 276.75 386.4L367.65 386.4C373.93 386.4 379 395.6 379 406.8C379 418 373.93 427.2 367.7 427.2Z" />
		<path id="Layer copy 6" class="shp8" d="M748.7 427.2L657.75 427.2C651.46 427.2 646.4 418 646.4 406.8C646.4 395.6 651.52 386.4 657.75 386.4L748.65 386.4C754.94 386.4 760 395.6 760 406.8C760 418 754.94 427.2 748.7 427.2Z" />
		<path id="Layer copy" class="shp9" d="M697.8 745L309.84 745C283.01 745 261.4 731.34 261.4 714.7C261.4 698.06 283.24 684.4 309.84 684.4L697.56 684.4C724.39 684.4 746 698.06 746 714.7C746 731.34 724.39 745 697.8 745Z" />
	</g>
	<g id="Layer">
		<g id="Layer">
			<path id="Layer" fill-rule="evenodd" class="shp10" d="M541.95 216.86C566.65 219.58 589.24 227.55 608.77 240.51C618.75 247.16 636.01 264.15 642.66 273.87C651.59 287 658.43 302.86 662.28 319.49C664.03 327.03 664.2 330.7 664.64 374.4L665.16 421.25L671.81 421.69C675.85 421.95 679.08 422.65 680.05 423.44C683.99 426.76 683.99 426.41 683.99 501.37C683.99 545.95 683.64 575.46 683.03 580.8C678.74 619.51 651.58 650.86 613.23 661.45L604.74 663.82L426.97 663.82L418.21 661.37C402.1 656.99 387.74 648.84 376.27 637.64C365.49 627.04 363.74 622.31 368.65 616.79C370.84 614.34 371.8 613.9 375.13 613.9C378.9 613.9 379.42 614.16 388.18 622.75C400.53 634.74 410.33 640.26 425.48 643.85C431.79 645.34 438.09 645.43 516.73 645.43L601.24 645.43L608.25 643.41C622.44 639.47 634.26 632.55 643.8 622.48C650.81 615.3 655.8 607.77 659.3 599.19C664.73 586.14 664.73 586.31 664.73 509.69L664.73 440.08L366.12 440.08L366.12 462.14L363.14 465.12C359.9 468.36 356.66 468.97 352.54 467.05C348.25 465.12 347.73 462.67 347.73 444.02L347.73 426.77L350.27 424.23C352.63 421.87 353.34 421.69 359.47 421.69L366.03 421.69L366.38 375.45C366.73 331.67 366.82 328.87 368.66 320.55C374.52 294.36 385.12 274.66 403.33 256.62C408.59 251.28 416.56 244.53 420.85 241.56C440.55 228.16 464.72 219.4 488.71 216.86C498.61 215.81 532.32 215.81 541.95 216.86ZM492.57 235.16C481.88 236.21 469.8 238.84 460.25 242.08C419.97 256.01 392.56 288.23 386.08 329.13C385.29 334.29 384.94 348.21 384.94 378.78L384.94 421.25L515.68 421.51L646.42 421.69L646.08 375.97C645.73 330.26 645.73 330.17 643.54 320.89C632.5 275.62 597.65 244.71 548.26 236.48C538.45 234.81 504.48 234.03 492.57 235.16Z" />
			<path id="Layer" class="shp11" d="M502.73 469.33C490.38 471.95 478.73 478.17 469.98 486.84C462.45 494.2 458.06 500.94 458.06 505.06C458.06 511.27 464.72 515.91 470.5 513.72C471.81 513.28 474.44 510.66 476.45 508.03C486.96 493.67 499.75 487.01 516.3 487.1C540.82 487.19 560.26 505.75 562.01 530.71C562.63 539.64 560.78 547.44 556.14 556.37L552.64 562.94L552.64 574.49C552.64 591.48 550.1 598.49 540.82 607.24C526.63 620.73 505.18 620.82 490.46 607.59C488.01 605.4 485.04 601.9 483.81 599.71C480.83 594.81 478.2 586.23 478.2 581.85C478.2 577.03 476.01 573.27 472.34 571.78C468.31 570.03 464.81 570.9 462 574.23C460.16 576.42 459.81 577.73 459.81 582.2C459.9 601.46 472.51 621.25 490.46 630.01C503.25 636.23 515.77 637.72 528.64 634.48C545.1 630.28 558.07 619.94 565.6 605.06C569.54 597.26 571.02 590.7 571.55 578.43C571.99 568.62 572.34 566.79 575.05 560.48C579.69 549.27 580.92 542.79 580.48 530.71C580.13 522.21 579.6 518.79 577.68 513.19C570.85 493.05 555.17 477.73 534.68 471.07C526.02 468.27 511.57 467.49 502.73 469.33Z" />
			<path id="Layer" fill-rule="evenodd" class="shp12" d="M304.38 487.1C327.84 488.59 347.02 504 354.38 527.21L356.3 533.33L447.38 533.77C533.89 534.21 538.54 534.3 540.2 535.79C544.93 540.08 544.4 547.26 539.15 550.5C536.87 551.9 534.77 552.16 526.19 552.16L515.85 552.16L515.85 570.99C515.85 591.3 515.33 594.37 511.39 597.17C508.06 599.45 503.25 599.01 499.92 596.03L497.03 593.49L496.76 572.83L496.5 552.16L356.04 552.16L354.9 556.72C352.36 567.67 344.31 580.01 335.2 586.84C324.61 594.9 313.75 598.58 300.87 598.58C291.24 598.58 284.67 597 275.48 592.54C256.92 583.34 245.18 564.69 245 543.85C244.92 533.25 246.06 527.74 250.7 518.01C255.69 507.51 265.41 497.87 275.92 492.79C282.48 489.73 286.69 488.42 295.18 487.02C296.41 486.84 300.52 486.84 304.38 487.1ZM300.53 505.75C285.73 505.84 273.29 513.9 266.9 527.47C263.48 534.74 262.61 545.51 264.88 553.13C269.09 567.84 282.48 578.61 297.9 579.93C324.61 582.2 345.18 554.71 335.55 529.49C331.79 519.42 321.81 510.13 311.47 507.07C309.11 506.37 304.12 505.75 300.53 505.75Z" />
		</g>
	</g>
</svg>