<?xml version="1.0" encoding="UTF-8" standalone="no"?>
<!-- Created with Inkscape (http://www.inkscape.org/) -->

<svg
   xmlns:dc="http://purl.org/dc/elements/1.1/"
   xmlns:cc="http://creativecommons.org/ns#"
   xmlns:rdf="http://www.w3.org/1999/02/22-rdf-syntax-ns#"
   xmlns:svg="http://www.w3.org/2000/svg"
   xmlns="http://www.w3.org/2000/svg"
   xmlns:sodipodi="http://sodipodi.sourceforge.net/DTD/sodipodi-0.dtd"
   xmlns:inkscape="http://www.inkscape.org/namespaces/inkscape"
   width="16px"
   height="16px"
   viewBox="0 0 16 16"
   version="1.1"
   id="SVGRoot"
   inkscape:version="0.92.4 (5da689c313, 2019-01-14)"
   sodipodi:docname="favicon.svg">
  <defs
     id="defs106" />
  <sodipodi:namedview
     id="base"
     pagecolor="#ffffff"
     bordercolor="#666666"
     borderopacity="1.0"
     inkscape:pageopacity="0.0"
     inkscape:pageshadow="2"
     inkscape:zoom="11.313709"
     inkscape:cx="16.086025"
     inkscape:cy="10.578761"
     inkscape:document-units="px"
     inkscape:current-layer="layer1"
     showgrid="false"
     inkscape:window-width="1366"
     inkscape:window-height="705"
     inkscape:window-x="-8"
     inkscape:window-y="-8"
     inkscape:window-maximized="1"
     inkscape:grid-bbox="true" />
  <metadata
     id="metadata109">
    <rdf:RDF>
      <cc:Work
         rdf:about="">
        <dc:format>image/svg+xml</dc:format>
        <dc:type
           rdf:resource="http://purl.org/dc/dcmitype/StillImage" />
        <dc:title></dc:title>
      </cc:Work>
    </rdf:RDF>
  </metadata>
  <g
     inkscape:label="Layer 1"
     inkscape:groupmode="layer"
     id="layer1">
    <path
       style="stroke-width:0.00758412"
       d="M 11.416445,1.4428225 C 8.936438,1.8296126 6.1303142,3.1416653 4.6741635,4.5978161 4.1129387,5.1590409 4.3177099,5.1362885 4.9092712,4.5674796 6.1530666,3.3691889 8.2462834,2.3377489 10.445678,1.8599494 13.17596,1.2532197 15.375355,1.602089 15.701472,2.6866182 15.822818,3.0885765 15.739392,3.4374459 15.382939,3.9683342 14.670032,5.037695 13.031862,6.0918875 9.1184568,7.9955011 7.6698905,8.7008242 7.275516,8.8676752 7.275516,8.7614973 7.275516,8.6098147 7.7229792,6.7744581 8.0035914,5.7733545 8.1097692,5.3865644 8.2614518,5.0073585 8.3372928,4.9239332 8.617905,4.6281526 8.8302607,3.7483948 8.6482419,3.6422171 c -0.037921,-0.022752 -0.1061779,0 -0.1516826,0.060673 C 8.3221244,3.9152454 7.7760678,5.674761 7.2300113,7.7983144 7.0479924,8.5036369 6.8583896,9.1103672 6.7977165,9.1407034 6.4033425,9.368227 5.9255431,9.7550171 5.8117813,9.9522038 c -0.1213459,0.2047712 -0.12893,0.2654442 -0.037921,0.4474632 0.053089,0.113762 0.2351078,0.303365 0.4095422,0.417126 l 0.3033651,0.204772 -0.2806128,1.524407 c -0.3867898,2.108386 -0.4171263,2.351078 -0.2654438,2.351078 0.1744344,0 0.2426915,-0.212356 0.3867901,-1.25138 0.151682,-1.023856 0.4019579,-2.396582 0.4474626,-2.442087 0.015168,-0.01517 0.3792062,0.08343 0.8115009,0.235108 1.3423891,0.439879 3.920989,1.023857 4.095424,0.910095 0.159266,-0.09101 0.04551,-0.174435 -0.364038,-0.257861 C 9.6569295,11.772392 7.9505027,11.309761 7.2375958,10.991228 6.8735581,10.831962 6.8204688,10.786457 6.8583896,10.634775 6.881142,10.536181 6.9493991,10.20248 7.0100722,9.8915312 7.0783293,9.5805821 7.1693387,9.2848015 7.2224273,9.2317129 7.275516,9.1786242 8.2386995,8.7008242 9.3687328,8.1623515 13.926788,5.9932939 15.640799,4.7267461 16.004837,3.2705953 16.224776,2.3832534 15.663551,1.7158508 14.46526,1.4352386 13.866115,1.2987244 12.341707,1.2987244 11.416445,1.4428186 Z M 6.6915392,10.065966 c -0.068257,0.318533 -0.166851,0.583977 -0.2123557,0.583977 -0.045505,0 -0.1820188,-0.106178 -0.3033646,-0.227524 C 5.9938001,10.232817 5.9710477,10.16456 6.0317209,10.058382 6.1227303,9.9142836 6.7522118,9.4137317 6.7901326,9.4592364 6.805301,9.4744043 6.7597963,9.7474326 6.6915392,10.065966 Z"
       id="path4"
       inkscape:connector-curvature="0" />
    <g
       transform="matrix(0.00758412,0,0,-0.00758412,-0.52087118,10.736063)"
       id="g27">
      <path
         inkscape:connector-curvature="0"
         id="path6"
         d="m 1123.6544,1183.773 c -18,-13 -58,-52 -88,-88 -67,-78 -269,-380.00003 -388,-579.00003 l -86,-144 -103,-57 c -56,-31 -135,-78 -175,-103 -40,-26 -81,-47 -92,-47 -20,0 -90,-55 -90,-71 0,-22 42,-3 154,69 152,98 265,166 271,161 2,-3 -23,-52 -57,-109 -118,-205 -238,-427 -238,-441 0,-30 39,31 194,303 l 161,283 65,32 c 147,72 451,176 467,159 9,-9 -55,-296 -154,-689 -52,-208 -93,-390 -91,-405 l 3,-27 17,25 c 24,36 206,772 259,1046 13,70 19,74 128,74 31,0 63,5 71,11 11,7 -13,9 -83,7 l -99,-4 7,31 c 47,228 68,481.00003 46,548.00003 -10,31 -17,37 -40,37 -14,0 -41,-10 -59,-22 z m 69,-50 c 13,-50 -5,-247.00003 -42,-441.00003 l -21,-115 -40,-6 c -63,-10 -254,-74 -362,-122 -55,-24 -102,-42 -104,-39 -11,10 278,460 387,603.00003 59,78 142,162 160,162 6,0 15,-19 22,-42 z" />
    </g>
  </g>
</svg>
