<?xml version="1.0" encoding="UTF-8" standalone="no"?>
<svg
   xmlns:dc="http://purl.org/dc/elements/1.1/"
   xmlns:cc="http://creativecommons.org/ns#"
   xmlns:rdf="http://www.w3.org/1999/02/22-rdf-syntax-ns#"
   xmlns:svg="http://www.w3.org/2000/svg"
   xmlns="http://www.w3.org/2000/svg"
   xmlns:sodipodi="http://sodipodi.sourceforge.net/DTD/sodipodi-0.dtd"
   xmlns:inkscape="http://www.inkscape.org/namespaces/inkscape"
   id="svg"
   version="1.1"
   width="400"
   height="195.59471365638765"
   viewBox="0, 0, 400,195.59471365638765"
   sodipodi:docname="mbway_icon.svg"
   inkscape:version="0.92.4 (5da689c313, 2019-01-14)">
  <metadata
     id="metadata9">
    <rdf:RDF>
      <cc:Work
         rdf:about="">
        <dc:format>image/svg+xml</dc:format>
        <dc:type
           rdf:resource="http://purl.org/dc/dcmitype/StillImage" />
        <dc:title></dc:title>
      </cc:Work>
    </rdf:RDF>
  </metadata>
  <defs
     id="defs7" />
  <sodipodi:namedview
     pagecolor="#ffffff"
     bordercolor="#666666"
     borderopacity="1"
     objecttolerance="10"
     gridtolerance="10"
     guidetolerance="10"
     inkscape:pageopacity="0"
     inkscape:pageshadow="2"
     inkscape:window-width="1366"
     inkscape:window-height="705"
     id="namedview5"
     showgrid="false"
     inkscape:zoom="2"
     inkscape:cx="197.53095"
     inkscape:cy="111.32871"
     inkscape:window-x="-8"
     inkscape:window-y="-8"
     inkscape:window-maximized="1"
     inkscape:current-layer="svg" />
  <g
     id="svgg">
    <path
       id="path0"
       d="m 17.647,55.066 c -2.839,6.776 -11.89,83.657 -10.204,86.67 2.371,4.238 9.963,3.466 11.879,-1.207 0.893,-2.181 2.915,-15.463 4.492,-29.516 1.578,-14.053 3.443,-28.326 4.146,-31.718 l 1.279,-6.167 5.895,14.097 c 3.242,7.753 8.536,21.918 11.763,31.478 6.801,20.143 8.21,22.266 14.777,22.266 6.448,0 6.871,-0.712 16.496,-27.768 9.4,-26.422 14.983,-40.019 16.009,-38.992 0.385,0.384 2.452,15.364 4.595,33.289 4.122,34.489 4.91,36.995 11.629,36.995 6.702,0 6.836,-3.593 1.682,-44.838 C 106.145,52.131 106.367,53.091 100.997,51.743 90.411,49.087 85.416,56.457 69.375,98.399 61.023,120.237 62.173,120.372 52.968,96.476 43.172,71.044 34.433,53.606 30.783,52.206 24.743,49.888 19.321,51.068 17.647,55.066 m 109.578,-1.85 c -3.366,3.366 -2.972,86.61 0.423,89.428 4.789,3.975 54.323,1.743 60.335,-2.718 15.459,-11.47 16.927,-31.902 3.075,-42.798 l -4.089,-3.216 3.54,-7.156 c 6.144,-12.417 -0.105,-27.563 -13.718,-33.251 -7.485,-3.127 -46.5,-3.355 -49.566,-0.289 M 177.239,69.5 c 7.436,10.186 -0.653,20.368 -16.181,20.368 -7.714,0 -9.743,0.656 -11.357,3.671 -3.595,6.717 2.119,10.426 16.067,10.426 18.151,0 24.943,5.598 20.892,17.22 -2.593,7.439 -8.18,9.211 -29.034,9.211 H 139.207 V 98.091 c 0,-17.768 0.328,-32.636 0.729,-33.04 2.572,-2.591 34.986,1.275 37.303,4.449 m 61.696,-1.05 c -1.122,1.816 3.914,27.482 9.043,46.087 5.732,20.794 13.609,16.599 19.852,-10.572 3.555,-15.469 4.54,-15.661 7.929,-1.546 5.545,23.098 10.349,29.638 16.347,22.251 4.05,-4.989 15.164,-54.228 12.778,-56.614 -3.254,-3.255 -6.811,0.754 -8.692,9.796 -8.498,40.863 -8.926,41.344 -14.235,15.981 -6.998,-33.437 -11.626,-34.646 -18.544,-4.846 -7.333,31.581 -6.705,31.513 -13.064,1.422 -4.575,-21.646 -7.788,-27.827 -11.414,-21.959 m 87.292,5.118 c -5.306,10.437 -18.128,49.678 -16.888,51.685 2.314,3.743 6.595,0.473 9.415,-7.191 l 2.918,-7.93 11.032,-0.526 11.032,-0.526 3.698,8.896 c 3.567,8.584 7.66,11.407 9.518,6.565 2.513,-6.548 -18.681,-57.581 -23.912,-57.581 -2.218,0 -4.655,2.364 -6.813,6.608 m 32.161,-4.073 c -0.627,1.635 2.353,9.684 7.068,19.089 6.434,12.832 8.155,18.12 8.16,25.072 0.007,10.135 1.914,14.193 5.942,12.647 2.162,-0.829 2.821,-3.605 2.821,-11.879 0,-7.596 0.958,-12.183 3.232,-15.474 6.782,-9.815 14.117,-28.033 12.099,-30.051 -3.486,-3.485 -4.851,-2.11 -11.22,11.301 -8.133,17.126 -7.739,17.092 -15.748,1.346 -7,-13.761 -10.418,-17.096 -12.354,-12.051 m -20.37,19.051 c 5.016,14.281 5.252,13.657 -5.167,13.657 -6.474,0 -8.762,-0.618 -8.156,-2.203 0.464,-1.211 2.279,-6.762 4.034,-12.335 3.995,-12.68 4.545,-12.628 9.289,0.881"
       inkscape:connector-curvature="0"
       style="fill:#000000;fill-rule:evenodd;stroke:none"
       sodipodi:nodetypes="ccccccccscccscccccccccccccccscscscscccccccccccccccccccccscccccsccccccsccc" />
  </g>
  <path
     style="opacity:1;fill:#ff0000;fill-opacity:1;fill-rule:evenodd;stroke:none;stroke-width:0.40562403;stroke-linejoin:round;stroke-miterlimit:4;stroke-dasharray:none;stroke-opacity:1"
     d="M 24.519541,31.590983 C 20.646489,29.229201 20.586715,20.563414 24.388638,12.613092 26.129684,8.9723353 29.22436,5.4317078 31.643302,4.313013 35.794721,2.3930935 50.871579,1.7767171 93.641776,1.7783739 c 40.480974,0.00157 62.881214,0.6385907 78.207224,2.224073 7.05375,0.7297135 7.99161,1.0377126 10.21222,3.3537689 6.20533,6.4720402 8.22219,19.8629532 3.60887,23.9610742 -1.26784,1.126248 -5.05888,1.31837 -6.92429,0.350908 -2.08186,-1.079716 -3.074,-2.886198 -5.11939,-9.321312 l -1.84204,-5.795324 H 104.84971 37.915051 L 35.99165,22.52854 c -1.985141,6.168832 -3.097833,8.152967 -5.174318,9.226759 -1.631691,0.84378 -4.779304,0.761655 -6.297791,-0.164316 z"
     id="path11"
     inkscape:connector-curvature="0" />
  <path
     style="opacity:1;fill:#ff0000;fill-opacity:1;fill-rule:evenodd;stroke:none;stroke-width:0.70781392;stroke-linejoin:round;stroke-miterlimit:4;stroke-dasharray:none;stroke-opacity:1"
     d="M 27.38704,192.75964 C 15.443854,192.21962 9.787246,191.34554 7.1634179,189.63459 2.0602528,186.30693 0.3100665,169.5153 4.5421605,164.48575 c 3.2328944,-3.84208 7.9956945,-2.3311 10.1332895,3.21476 0.449703,1.16672 1.027746,4.1896 1.284539,6.71751 l 0.466896,4.59619 88.461135,0.17951 88.46114,0.17951 0.45801,-5.41829 c 0.69919,-8.27142 4.18368,-12.75824 8.68008,-11.17695 3.37123,1.1856 4.8597,4.75795 4.84998,11.64003 -0.01,7.09464 -1.38322,10.37867 -6.57877,15.73313 l -3.25908,3.35875 -79.22254,-0.11135 c -43.572392,-0.0613 -84.472806,-0.34876 -90.8898,-0.63891 z"
     id="path19"
     inkscape:connector-curvature="0" />
</svg>
