<svg id="svg" version="1.1" xmlns="http://www.w3.org/2000/svg" xmlns:xlink="http://www.w3.org/1999/xlink" width="400" height="400" viewBox="0, 0, 400,400"><g id="svgg"><path id="path0" d="M173.461 66.900 C 173.337 67.395,173.226 142.545,173.216 233.900 L 173.196 400.000 199.798 400.000 L 226.400 400.000 226.400 233.000 L 226.400 66.000 200.043 66.000 L 173.687 66.000 173.461 66.900 " stroke="none" fill="#f8aa28" fill-rule="evenodd"></path><path id="path1" d="M298.898 32.900 L 298.800 66.000 262.800 66.000 L 226.800 66.000 226.800 83.000 L 226.800 100.000 263.400 100.000 L 300.000 100.000 300.000 83.280 C 300.000 72.732,299.853 66.413,299.602 66.162 C 299.347 65.907,299.167 53.965,299.100 32.782 L 298.995 -0.200 298.898 32.900 M6.006 132.866 C 6.009 175.936,6.151 199.900,6.403 200.204 C 6.650 200.502,6.833 212.788,6.898 233.438 L 7.000 266.200 89.900 266.400 L 172.800 266.600 172.800 250.333 C 172.800 241.386,172.860 233.826,172.934 233.533 C 173.008 233.240,172.993 233.135,172.901 233.300 C 172.809 233.465,148.825 233.600,119.603 233.600 L 66.472 233.600 66.024 230.700 C 65.286 225.933,63.177 220.293,61.324 218.134 C 60.926 217.670,60.099 216.657,59.486 215.883 C 55.970 211.441,47.826 207.397,41.800 207.099 L 39.800 207.000 39.698 166.888 C 39.617 134.989,39.699 126.747,40.098 126.635 C 40.374 126.557,41.860 126.276,43.400 126.009 C 53.342 124.288,61.742 117.643,64.396 109.400 C 64.680 108.520,65.055 107.350,65.231 106.800 C 65.407 106.250,65.758 104.494,66.012 102.897 L 66.473 99.994 119.737 100.097 L 173.000 100.200 172.892 83.100 L 172.783 66.000 89.392 66.000 L 6.000 66.000 6.006 132.866 M353.172 146.100 C 353.156 190.155,352.989 226.560,352.800 227.000 C 352.476 227.754,352.455 227.746,352.428 226.871 C 352.352 224.342,346.000 210.167,346.000 212.525 C 346.000 212.692,346.293 213.275,346.650 213.820 C 347.481 215.088,346.515 216.590,341.809 221.354 C 336.299 226.931,331.428 229.884,323.800 232.273 L 320.200 233.400 273.500 233.511 L 226.800 233.622 226.800 250.024 L 226.800 266.427 276.900 266.310 L 327.000 266.194 330.056 265.141 C 340.211 261.642,348.341 253.673,351.405 244.216 C 353.473 237.833,353.336 243.679,353.577 151.500 C 353.699 104.475,353.665 66.000,353.500 66.000 C 353.335 66.000,353.187 102.045,353.172 146.100 M300.098 150.100 L 300.000 200.000 310.100 199.907 L 320.200 199.815 310.302 199.700 L 300.403 199.586 300.300 149.893 L 300.197 100.200 300.098 150.100 M168.617 110.280 C 157.456 117.870,148.202 130.460,143.981 143.800 C 143.494 145.340,142.951 146.960,142.775 147.400 C 142.599 147.840,142.363 148.740,142.251 149.400 C 142.140 150.060,141.942 151.140,141.811 151.800 C 140.284 159.510,139.824 165.718,140.371 171.259 C 140.871 176.333,141.485 180.696,141.995 182.800 C 142.780 186.042,143.300 187.842,143.639 188.495 C 143.838 188.877,144.000 189.516,144.000 189.915 C 144.000 190.314,144.143 190.811,144.318 191.020 C 144.493 191.229,144.875 192.120,145.166 193.000 C 148.748 203.834,158.764 216.520,169.279 223.540 C 170.972 224.671,172.502 225.854,172.679 226.170 C 172.963 226.678,172.975 170.520,172.699 124.286 L 172.600 107.572 168.617 110.280 M226.800 166.606 C 226.800 208.951,226.923 225.600,227.236 225.600 C 228.524 225.600,237.334 218.637,241.000 214.723 C 260.574 193.819,265.055 161.597,252.114 134.800 C 247.994 126.270,240.676 117.229,233.800 112.176 C 232.921 111.529,231.852 110.685,231.425 110.300 C 230.998 109.915,230.413 109.600,230.125 109.600 C 229.836 109.600,229.600 109.453,229.600 109.274 C 229.600 109.095,228.970 108.648,228.200 108.281 L 226.800 107.613 226.800 166.606 M80.791 148.006 C 61.573 154.520,62.802 181.698,82.498 185.766 C 99.024 189.180,111.249 172.778,103.723 157.293 C 99.969 149.569,89.130 145.179,80.791 148.006 M325.000 200.594 C 330.338 201.663,330.334 201.663,328.600 200.990 C 327.720 200.649,325.920 200.294,324.600 200.202 L 322.200 200.033 325.000 200.594 M331.200 202.065 C 337.407 204.822,340.661 207.005,344.519 211.000 L 345.677 212.200 344.811 210.899 C 344.334 210.184,343.282 209.104,342.472 208.499 C 341.662 207.895,340.471 206.918,339.825 206.328 C 338.399 205.028,333.058 202.197,331.400 201.863 C 330.242 201.630,330.235 201.637,331.200 202.065 M226.582 283.600 C 226.582 292.510,226.635 296.155,226.700 291.700 C 226.764 287.245,226.764 279.955,226.700 275.500 C 226.635 271.045,226.582 274.690,226.582 283.600 M226.582 350.000 C 226.582 358.910,226.635 362.555,226.700 358.100 C 226.764 353.645,226.764 346.355,226.700 341.900 C 226.635 337.445,226.582 341.090,226.582 350.000 " stroke="none" fill="#84b434" fill-rule="evenodd"></path><path id="path2" d="M299.200 32.890 C 299.200 56.131,299.328 65.968,299.636 66.276 C 299.945 66.585,300.138 86.028,300.298 133.156 L 300.525 199.600 309.563 199.617 C 328.952 199.655,335.497 201.575,343.589 209.600 C 347.349 213.329,352.312 223.025,352.428 226.871 C 352.455 227.746,352.476 227.754,352.800 227.000 C 352.989 226.560,353.156 190.155,353.172 146.100 C 353.192 87.534,353.320 66.000,353.645 66.000 C 354.307 66.000,353.976 27.534,353.307 26.729 C 353.041 26.409,352.780 25.574,352.727 24.873 C 352.673 24.173,352.488 23.600,352.315 23.600 C 352.142 23.600,352.000 23.071,352.000 22.424 C 352.000 21.777,351.820 21.136,351.600 21.000 C 351.380 20.864,351.200 20.403,351.200 19.976 C 351.200 19.549,351.020 19.200,350.800 19.200 C 350.580 19.200,350.400 18.840,350.400 18.400 C 350.400 17.960,350.264 17.600,350.098 17.600 C 349.931 17.600,349.536 17.015,349.220 16.300 C 348.903 15.585,348.320 14.651,347.922 14.225 C 347.525 13.798,347.200 13.202,347.200 12.901 C 347.200 12.599,347.020 12.464,346.800 12.600 C 346.580 12.736,346.400 12.661,346.400 12.434 C 346.400 11.240,339.486 5.190,336.430 3.710 C 335.203 3.116,334.140 2.488,334.067 2.315 C 333.993 2.142,333.599 2.000,333.190 2.000 C 332.782 2.000,332.336 1.820,332.200 1.600 C 332.064 1.380,331.438 1.200,330.810 1.200 C 330.181 1.200,329.592 0.975,329.500 0.700 C 329.372 0.315,325.871 0.170,314.267 0.070 L 299.200 -0.060 299.200 32.890 M172.883 83.100 C 172.929 92.505,173.017 98.580,173.080 96.600 C 173.357 87.805,173.372 65.999,173.100 66.000 C 172.935 66.000,172.837 73.695,172.883 83.100 M226.597 166.800 C 226.597 222.350,226.643 245.075,226.700 217.300 C 226.757 189.525,226.757 144.075,226.700 116.300 C 226.643 88.525,226.597 111.250,226.597 166.800 M173.340 103.600 C 173.340 105.470,173.409 106.235,173.493 105.300 C 173.577 104.365,173.577 102.835,173.493 101.900 C 173.409 100.965,173.340 101.730,173.340 103.600 M172.995 166.600 C 172.995 199.380,173.042 212.731,173.100 196.269 C 173.158 179.806,173.158 152.986,173.100 136.669 C 173.042 120.351,172.995 133.820,172.995 166.600 M173.337 229.800 C 173.339 231.560,173.409 232.230,173.493 231.289 C 173.578 230.349,173.577 228.909,173.491 228.089 C 173.405 227.270,173.336 228.040,173.337 229.800 M172.991 266.800 C 172.991 285.170,173.040 292.685,173.100 283.500 C 173.160 274.315,173.160 259.285,173.100 250.100 C 173.040 240.915,172.991 248.430,172.991 266.800 M172.983 350.000 C 172.983 359.130,173.035 362.865,173.100 358.300 C 173.164 353.735,173.164 346.265,173.100 341.700 C 173.035 337.135,172.983 340.870,172.983 350.000 " stroke="none" fill="#9cc43c" fill-rule="evenodd"></path><path id="path3" d="M66.652 100.899 C 66.520 101.394,66.408 102.533,66.405 103.430 C 66.371 113.861,54.337 125.577,42.526 126.680 L 40.000 126.916 40.000 166.615 C 40.000 202.447,40.062 206.338,40.633 206.557 C 40.981 206.691,42.031 206.800,42.967 206.800 C 53.404 206.800,66.400 219.743,66.400 230.138 C 66.400 231.126,66.509 232.219,66.643 232.567 C 67.015 233.537,172.185 233.537,172.557 232.567 C 172.898 231.680,172.849 227.090,172.494 226.568 C 172.332 226.330,170.773 225.178,169.029 224.008 C 159.126 217.362,150.789 207.218,145.684 195.600 C 140.232 183.195,138.237 166.179,140.805 154.000 C 141.014 153.010,141.392 151.210,141.645 150.000 C 144.045 138.542,150.688 126.307,159.242 117.595 C 163.574 113.182,170.683 107.600,171.970 107.600 C 172.604 107.600,172.853 106.068,172.720 102.992 L 172.600 100.200 119.747 100.099 L 66.894 99.997 66.652 100.899 M226.820 103.498 L 226.839 107.000 230.139 109.086 C 238.865 114.603,247.087 123.776,251.930 133.400 C 254.271 138.050,255.600 141.021,255.600 141.601 C 255.600 141.826,255.762 142.323,255.959 142.705 C 256.471 143.696,257.899 148.642,258.354 151.000 C 258.566 152.100,258.977 154.170,259.267 155.600 C 259.974 159.081,259.982 174.019,259.279 177.800 C 258.020 184.570,256.449 190.174,254.767 193.896 C 254.345 194.828,254.000 195.707,254.000 195.849 C 254.000 196.451,250.542 202.850,248.623 205.800 C 243.625 213.481,238.045 219.118,230.500 224.108 L 226.800 226.555 226.800 229.896 L 226.800 233.237 273.300 233.090 L 319.800 232.943 323.328 231.905 C 331.170 229.597,338.958 224.601,343.444 219.000 C 344.501 217.680,345.482 216.510,345.623 216.400 C 347.397 215.020,347.102 214.318,343.001 210.161 C 335.327 202.382,330.418 200.787,313.400 200.541 C 306.800 200.446,300.996 200.282,300.502 200.177 L 299.603 199.986 299.502 150.093 L 299.400 100.200 263.100 100.098 L 226.800 99.996 226.820 103.498 M393.200 199.776 C 393.200 236.393,393.062 266.438,392.894 266.542 C 392.725 266.646,355.285 266.864,309.694 267.026 L 226.800 267.320 226.800 283.660 L 226.800 300.000 309.800 300.000 L 392.800 300.000 392.800 283.849 C 392.800 269.980,392.885 267.628,393.400 267.200 C 394.134 266.591,394.333 133.200,393.600 133.200 C 393.335 133.200,393.200 155.659,393.200 199.776 M92.890 147.657 C 111.553 154.075,110.952 180.356,92.014 185.996 C 78.059 190.152,64.023 177.424,66.774 163.110 C 69.076 151.133,81.544 143.756,92.890 147.657 M6.000 267.153 C 6.000 267.399,6.270 267.600,6.600 267.600 C 7.123 267.600,7.200 269.667,7.200 283.800 L 7.200 300.000 89.800 300.000 L 172.400 300.000 172.400 316.799 L 172.400 333.598 89.700 333.699 L 7.000 333.800 7.000 350.000 L 7.000 366.200 89.634 366.301 L 172.269 366.402 172.536 341.601 C 172.683 327.960,172.683 305.640,172.536 292.000 L 172.269 267.200 90.034 267.195 C 44.805 267.192,7.395 267.081,6.900 266.948 C 6.360 266.803,6.000 266.885,6.000 267.153 M226.800 350.000 L 226.800 366.402 309.900 366.301 L 393.000 366.200 393.000 350.000 L 393.000 333.800 309.900 333.699 L 226.800 333.598 226.800 350.000 M172.583 383.400 C 172.583 392.640,172.636 396.363,172.700 391.673 C 172.764 386.983,172.764 379.423,172.699 374.873 C 172.635 370.323,172.583 374.160,172.583 383.400 " stroke="none" fill="#6c942c" fill-rule="evenodd"></path><path id="path4" d="M353.793 66.496 C 353.691 66.773,353.550 105.250,353.481 152.000 C 353.345 243.728,353.478 237.817,351.405 244.216 C 350.327 247.542,348.146 251.413,345.521 254.655 C 341.898 259.130,336.109 263.056,330.056 265.141 L 327.000 266.194 276.900 266.310 C 240.333 266.395,226.800 266.547,226.800 266.873 C 226.800 267.317,392.174 266.987,392.894 266.542 C 393.062 266.438,393.200 236.393,393.200 199.776 C 393.200 155.407,393.334 133.200,393.602 133.200 C 393.870 133.200,393.970 121.961,393.902 99.700 L 393.800 66.200 373.889 66.096 C 358.170 66.014,353.939 66.099,353.793 66.496 M172.734 102.873 C 172.881 105.938,172.613 107.600,171.970 107.600 C 170.683 107.600,163.574 113.182,159.242 117.595 C 150.688 126.307,144.045 138.542,141.645 150.000 C 141.392 151.210,141.014 153.010,140.805 154.000 C 138.237 166.179,140.232 183.195,145.684 195.600 C 149.114 203.405,153.430 209.810,159.120 215.537 C 164.167 220.617,164.865 221.213,169.029 224.008 C 170.773 225.178,172.332 226.330,172.494 226.568 C 172.849 227.090,172.898 231.680,172.557 232.567 C 172.230 233.420,67.009 233.552,66.665 232.700 C 66.544 232.401,66.450 232.482,66.432 232.900 C 66.385 233.930,172.562 233.997,172.957 232.967 C 174.352 229.333,173.086 226.082,169.288 223.547 C 158.764 216.520,148.749 203.838,145.166 193.000 C 144.875 192.120,144.493 191.229,144.318 191.020 C 144.143 190.811,144.000 190.314,144.000 189.915 C 144.000 189.516,143.838 188.877,143.639 188.495 C 143.303 187.848,142.959 186.654,142.028 182.900 C 141.493 180.742,140.886 176.478,140.371 171.259 C 139.824 165.718,140.284 159.510,141.811 151.800 C 141.942 151.140,142.140 150.060,142.251 149.400 C 142.363 148.740,142.599 147.840,142.775 147.400 C 142.951 146.960,143.494 145.340,143.981 143.800 C 148.175 130.544,157.499 117.815,168.414 110.443 C 170.496 109.036,172.425 107.607,172.700 107.266 C 173.243 106.594,173.415 100.581,172.900 100.260 C 172.735 100.158,172.660 101.333,172.734 102.873 M299.500 132.100 C 299.556 149.755,299.647 172.300,299.705 182.200 C 299.762 192.100,299.851 177.655,299.904 150.100 C 299.957 122.545,299.865 100.000,299.700 100.000 C 299.535 100.000,299.445 114.445,299.500 132.100 M65.863 103.761 C 65.678 105.060,65.387 106.500,65.215 106.961 C 65.043 107.422,64.673 108.520,64.392 109.400 C 61.768 117.621,53.342 124.288,43.400 126.009 C 41.860 126.276,40.374 126.557,40.098 126.635 C 39.699 126.747,39.617 134.989,39.698 166.888 L 39.800 207.000 41.800 207.099 C 43.726 207.194,45.000 207.482,48.737 208.666 C 52.272 209.785,57.391 213.227,59.486 215.893 C 60.099 216.673,60.831 217.549,61.113 217.840 C 62.770 219.548,65.066 225.204,65.806 229.400 C 66.294 232.167,66.300 232.178,66.350 230.271 C 66.618 219.977,53.490 206.800,42.967 206.800 C 42.031 206.800,40.981 206.691,40.633 206.557 C 40.062 206.338,40.000 202.447,40.000 166.615 L 40.000 126.916 42.526 126.680 C 54.484 125.563,67.047 113.129,66.324 103.125 C 66.199 101.402,66.199 101.403,65.863 103.761 M226.926 107.480 C 227.067 107.709,227.727 108.121,228.391 108.396 C 229.056 108.672,229.600 109.055,229.600 109.249 C 229.600 109.442,229.836 109.600,230.125 109.600 C 230.413 109.600,230.998 109.915,231.425 110.300 C 231.852 110.685,232.921 111.529,233.800 112.176 C 248.214 122.770,257.860 141.587,259.155 161.641 C 260.825 187.476,250.294 210.073,230.136 223.909 C 228.781 224.839,227.476 225.600,227.236 225.600 C 226.996 225.600,226.800 225.795,226.800 226.033 C 226.800 227.219,235.308 221.063,239.834 216.600 C 245.242 211.269,254.000 198.440,254.000 195.849 C 254.000 195.707,254.345 194.828,254.767 193.896 C 256.449 190.174,258.020 184.570,259.279 177.800 C 259.982 174.019,259.974 159.081,259.267 155.600 C 258.977 154.170,258.566 152.100,258.354 151.000 C 257.899 148.642,256.471 143.696,255.959 142.705 C 255.762 142.323,255.600 141.826,255.600 141.601 C 255.600 138.054,246.748 123.981,240.656 117.842 C 235.051 112.195,225.284 104.824,226.926 107.480 M84.000 146.843 C 71.690 148.238,63.511 161.088,67.476 172.800 C 72.369 187.252,90.146 191.525,100.778 180.804 C 114.194 167.274,103.034 144.685,84.000 146.843 M91.938 147.855 C 106.158 151.977,110.880 170.025,100.453 180.399 C 87.822 192.968,66.959 184.219,67.116 166.419 C 67.230 153.547,79.616 144.284,91.938 147.855 M6.000 233.273 L 6.000 266.707 6.900 266.948 C 7.395 267.081,44.833 267.192,90.096 267.195 L 172.391 267.200 172.502 283.700 L 172.614 300.200 172.607 283.400 L 172.600 266.600 89.800 266.400 L 7.000 266.200 6.898 233.418 C 6.832 212.365,6.653 200.493,6.398 200.238 C 6.134 199.974,6.000 211.117,6.000 233.273 M301.400 200.251 C 303.975 200.516,324.828 200.584,323.360 200.323 C 322.502 200.171,316.940 200.065,311.000 200.087 C 305.060 200.110,300.740 200.183,301.400 200.251 M326.033 200.944 C 326.125 201.023,326.740 201.208,327.400 201.356 C 328.276 201.552,328.438 201.515,328.000 201.218 C 327.460 200.853,325.632 200.598,326.033 200.944 M328.833 201.744 C 328.925 201.823,329.540 202.008,330.200 202.156 C 331.076 202.352,331.238 202.315,330.800 202.018 C 330.260 201.653,328.432 201.398,328.833 201.744 M338.000 205.754 C 338.000 205.839,338.495 206.227,339.100 206.616 L 340.200 207.324 339.438 206.462 C 338.764 205.699,338.000 205.323,338.000 205.754 M342.800 209.780 C 343.790 210.862,344.834 212.005,345.119 212.321 C 345.405 212.637,345.705 212.828,345.787 212.746 C 345.966 212.567,343.778 210.190,342.161 208.807 C 341.523 208.260,341.810 208.698,342.800 209.780 M346.373 215.266 C 346.102 215.780,345.764 216.290,345.623 216.400 C 345.482 216.510,344.501 217.680,343.444 219.000 C 338.957 224.602,331.167 229.599,323.328 231.904 L 319.800 232.941 273.200 233.187 L 226.600 233.433 273.400 233.416 L 320.200 233.400 323.800 232.273 C 328.615 230.765,333.787 228.202,337.265 225.601 C 340.681 223.045,347.696 215.163,347.092 214.558 C 346.967 214.434,346.643 214.752,346.373 215.266 M226.584 316.800 C 226.584 326.370,226.636 330.285,226.700 325.500 C 226.763 320.715,226.763 312.885,226.700 308.100 C 226.636 303.315,226.584 307.230,226.584 316.800 M172.983 316.600 C 172.983 325.620,173.035 329.367,173.099 324.927 C 173.164 320.487,173.164 313.107,173.100 308.527 C 173.035 303.947,172.983 307.580,172.983 316.600 M172.583 350.200 C 172.583 359.440,172.636 363.163,172.700 358.473 C 172.764 353.783,172.764 346.223,172.699 341.673 C 172.635 337.123,172.583 340.960,172.583 350.200 M226.583 383.000 C 226.583 392.460,226.636 396.273,226.700 391.473 C 226.764 386.673,226.763 378.933,226.699 374.273 C 226.636 369.613,226.583 373.540,226.583 383.000 M172.983 383.600 C 172.983 392.730,173.035 396.465,173.100 391.900 C 173.164 387.335,173.164 379.865,173.100 375.300 C 173.035 370.735,172.983 374.470,172.983 383.600 " stroke="none" fill="#7ba433" fill-rule="evenodd"></path><path id="path5" d="M354.182 50.000 C 354.182 58.910,354.235 62.555,354.300 58.100 C 354.364 53.645,354.364 46.355,354.300 41.900 C 354.235 37.445,354.182 41.090,354.182 50.000 M393.280 267.280 C 392.923 267.637,392.800 271.876,392.800 283.880 L 392.800 300.000 309.800 300.000 L 226.800 300.000 226.800 316.799 L 226.800 333.598 309.900 333.699 L 393.000 333.800 393.000 350.000 L 393.000 366.200 309.900 366.301 L 226.800 366.402 226.800 383.201 L 226.800 400.000 310.400 400.000 L 394.000 400.000 394.000 333.400 C 394.000 296.770,393.946 266.800,393.880 266.800 C 393.814 266.800,393.544 267.016,393.280 267.280 M6.000 333.800 L 6.000 400.000 89.200 400.000 L 172.400 400.000 172.400 383.201 L 172.400 366.402 89.700 366.301 L 7.000 366.200 7.000 350.000 L 7.000 333.800 89.700 333.699 L 172.400 333.598 172.400 316.799 L 172.400 300.000 89.800 300.000 L 7.200 300.000 7.200 283.800 C 7.200 269.667,7.123 267.600,6.600 267.600 C 6.069 267.600,6.000 275.222,6.000 333.800 " stroke="none" fill="#648c24" fill-rule="evenodd"></path></g></svg>