<?xml version="1.0" encoding="UTF-8" standalone="no"?>
<svg
   xmlns:dc="http://purl.org/dc/elements/1.1/"
   xmlns:cc="http://creativecommons.org/ns#"
   xmlns:rdf="http://www.w3.org/1999/02/22-rdf-syntax-ns#"
   xmlns:svg="http://www.w3.org/2000/svg"
   xmlns="http://www.w3.org/2000/svg"
   xmlns:sodipodi="http://sodipodi.sourceforge.net/DTD/sodipodi-0.dtd"
   xmlns:inkscape="http://www.inkscape.org/namespaces/inkscape"
   version="1.0"
   width="255.000000pt"
   height="300.000000pt"
   viewBox="0 0 255.000000 300.000000"
   preserveAspectRatio="xMidYMid meet"
   id="svg32"
   sodipodi:docname="multibanco_icon (1).svg"
   inkscape:version="0.92.4 (5da689c313, 2019-01-14)">
  <metadata
     id="metadata38">
    <rdf:RDF>
      <cc:Work
         rdf:about="">
        <dc:format>image/svg+xml</dc:format>
        <dc:type
           rdf:resource="http://purl.org/dc/dcmitype/StillImage" />
        <dc:title></dc:title>
      </cc:Work>
    </rdf:RDF>
  </metadata>
  <defs
     id="defs36" />
  <sodipodi:namedview
     pagecolor="#ffffff"
     bordercolor="#666666"
     borderopacity="1"
     objecttolerance="10"
     gridtolerance="10"
     guidetolerance="10"
     inkscape:pageopacity="0"
     inkscape:pageshadow="2"
     inkscape:window-width="681"
     inkscape:window-height="696"
     id="namedview34"
     showgrid="false"
     inkscape:zoom="0.834386"
     inkscape:cx="128.66362"
     inkscape:cy="96.021367"
     inkscape:window-x="-7"
     inkscape:window-y="0"
     inkscape:window-maximized="0"
     inkscape:current-layer="svg32" />
  <g
     transform="translate(0.000000,300.000000) scale(0.100000,-0.100000)"
     fill="#000000"
     stroke="none"
     id="g30" />
  <path
     style="opacity:1;fill:#000080;fill-opacity:1;stroke:none;stroke-width:0.89976346;stroke-linejoin:round;stroke-miterlimit:4;stroke-dasharray:none;stroke-opacity:1"
     d="M 25.386063,40.70854 C 19.022814,31.520158 21.019286,18.907626 26.049775,9.6134221 32.205263,1.0187296 43.880288,1.8376597 53.228479,2.0739796 107.82658,1.0496777 162.43713,1.4855679 217.04018,1.0039895 c 9.71745,3.5089352 16.3994,13.8663295 15.64928,24.1617125 3.13951,7.437826 -3.22457,19.121073 -12.05063,16.69683 -6.35603,-2.640947 -4.82268,-11.041109 -7.76157,-16.27568 -3.45029,-9.393675 -13.89543,-3.956386 -21.09598,-5.143802 -46.51523,0.07052 -93.03241,-0.23196 -139.54583,0.313722 -7.707445,-3.220811 -12.996218,5.385452 -14.018404,11.946256 0.697395,7.040346 -6.653932,12.853659 -12.830983,8.005512 z"
     id="path44"
     inkscape:connector-curvature="0" />
  <path
     style="opacity:1;fill:#000080;fill-opacity:1;stroke:none;stroke-width:0.89976346;stroke-linejoin:round;stroke-miterlimit:4;stroke-dasharray:none;stroke-opacity:1"
     d="M 16.826266,239.8331 C 3.5924927,234.4034 -1.6150568,217.66478 2.506358,204.67769 c 9.499378,-9.12596 20.609619,4.29878 21.635765,13.87632 6.216503,7.97934 17.518987,4.16046 26.121129,4.39215 53.399518,-2.05004 106.846428,0.47975 160.253218,-1.13858 10.41852,3.70486 24.46718,-2.49767 25.99208,-14.13299 7.12086,-11.78331 24.32068,3.67768 16.56338,13.54494 -3.25915,10.95966 -13.38028,21.4873 -25.63427,19.76471 -70.20302,-0.48144 -140.429749,1.30119 -210.611394,-1.15114 z"
     id="path46"
     inkscape:connector-curvature="0" />
  <path
     style="opacity:1;fill:#333333;fill-opacity:1;stroke:none;stroke-width:0.6362288;stroke-linejoin:round;stroke-miterlimit:4;stroke-dasharray:none;stroke-opacity:1"
     d="M 12.512768,179.29004 C 3.6917977,168.12338 6.4494528,153.01761 8.3934761,140.05393 11.00375,117.41788 15.161474,94.994365 17.857234,72.369575 21.064864,59.504957 42.346073,58.321257 46.951035,70.758584 55.724266,86.487198 57.667524,105.90046 65.4487,122.0878 c 8.447311,21.04596 11.448933,20.93431 18.052704,-0.17501 6.216597,-19.15309 13.257331,-37.487208 22.693026,-54.914967 8.22431,-10.384059 27.98343,-3.469776 27.78233,9.859087 3.66316,31.88773 7.82527,63.73737 10.05406,95.76921 -1.66278,8.83526 -16.89284,8.70435 -18.35071,-0.18898 -4.59246,-19.84495 -3.2044,-40.52709 -7.84573,-60.36391 -3.63634,-19.186065 -1.86625,-22.840131 -9.74417,-1.20248 -7.43283,20.03496 -16.015633,39.61262 -24.11518,59.38061 -4.960531,7.49805 -18.488196,4.68236 -19.787936,-4.34064 -5.845609,-18.72369 -14.83704,-36.2497 -20.963833,-54.86978 -8.300331,-21.753124 -7.197402,-19.290812 -12.566696,-0.0859 -5.543202,21.62559 -5.700518,39.28875 -7.77128,60.1742 1.934865,5.5653 -5.449504,11.21904 -10.372517,8.16076 z"
     id="path76"
     inkscape:connector-curvature="0"
     sodipodi:nodetypes="cccccccccccccccccc" />
  <path
     style="opacity:1;fill:#333333;fill-opacity:1;stroke:none;stroke-width:0.6362288;stroke-linejoin:round;stroke-miterlimit:4;stroke-dasharray:none;stroke-opacity:1"
     d="m 183.16954,178.36942 c -8.36864,-0.0648 -16.73728,-0.12965 -25.10592,-0.19447 -6.14734,-4.86344 -5.20083,-13.50284 -4.74594,-20.44737 0.28315,-29.31319 0.0819,-58.641531 1.36523,-87.93519 1.96205,-6.262752 9.63909,-6.647698 15.11787,-6.073007 16.40562,1.283568 33.39645,-1.827024 49.32635,3.403094 13.8503,6.50593 22.17748,23.637316 17.19939,38.396673 -1.34477,5.09096 -6.47459,9.96438 -3.85645,15.46548 5.29725,5.92594 11.93586,11.40909 14.07881,19.44448 4.70549,17.8421 -10.46152,37.03265 -28.60319,37.88339 -11.57906,0.61236 -23.18367,-0.3216 -34.77615,0.0569 z m -4.29485,-15.74371 c 13.96191,-1.27357 28.08734,0.28665 41.97436,-1.97799 11.65419,-4.73612 12.17172,-24.39864 0.27661,-29.15663 -11.2557,-5.25875 -24.43125,0.0816 -35.64301,-5.0894 -5.66551,-4.09641 -1.86697,-13.97566 4.80513,-14.20437 8.31206,-2.21925 18.23758,1.13451 25.31395,-5.01602 9.43771,-7.797193 4.18252,-26.429918 -8.49598,-26.867298 -10.27705,-1.034048 -20.67271,0.422688 -30.91222,-1.048013 -7.48874,0.361189 -6.17748,8.880028 -5.6643,14.040022 -0.0791,22.769169 -0.20796,45.559819 0.26706,68.334609 1.91942,2.74008 5.44232,0.9054 8.0784,0.98509 z"
     id="path78"
     inkscape:connector-curvature="0" />
  <path
     style="opacity:1;fill:#333333;fill-opacity:1;stroke:none;stroke-width:0.6362288;stroke-linejoin:round;stroke-miterlimit:4;stroke-dasharray:none;stroke-opacity:1"
     d="m 2.2065354,297.92829 c -0.283632,-7.31266 0.875801,-14.58307 2.1034263,-21.76587 0.4172063,-1.80133 0.9823421,-3.58277 1.8583867,-5.21739 1.6317258,-1.4284 3.8101244,0.26424 4.5890416,1.83072 3.013042,4.60943 5.170223,9.77625 8.729148,14.02339 2.269954,0.25663 2.706288,-2.50532 3.589488,-4.00925 1.999897,-4.05816 3.685509,-8.37943 6.726717,-11.80697 1.995959,-1.04198 4.023875,0.85275 4.808411,2.58716 2.573438,4.91672 1.933868,10.62419 2.433365,15.96499 0.200901,2.89421 0.30992,5.82632 -0.195077,8.6971 -2.061094,0.90201 -2.90438,-1.91988 -2.971333,-3.47455 -0.678382,-4.49266 -1.10481,-9.03265 -2.15199,-13.46195 -1.01691,-1.66653 -3.28997,-0.39692 -3.815402,1.04701 -0.820871,2.37213 -1.733088,4.73221 -2.574552,7.1061 -0.763543,2.01015 -1.653729,3.99323 -2.905082,5.75195 -0.249807,2.13365 -3.922616,2.4408 -4.37412,0.26874 -2.271489,-4.77043 -4.093134,-9.76621 -6.800188,-14.32077 -0.0115,-2.16705 -3.873227,-2.74779 -3.9341779,-0.30232 -0.9972071,4.53239 -1.0566044,9.21737 -1.9802715,13.75425 -0.4437384,1.39168 -0.240556,3.25392 -1.6353358,4.12998 -0.6227811,0.37435 -1.6342001,0.0628 -1.5004544,-0.80232 z"
     id="path80"
     inkscape:connector-curvature="0" />
  <path
     style="opacity:1;fill:#333333;fill-opacity:1;stroke:none;stroke-width:0.6362288;stroke-linejoin:round;stroke-miterlimit:4;stroke-dasharray:none;stroke-opacity:1"
     d="m 48.105988,297.80383 c -4.586643,-1.80862 -7.58484,-6.86627 -7.089218,-11.75363 -0.258813,-4.77796 -0.221988,-9.58763 0.411963,-14.33655 1.220833,-0.76375 2.569393,0.55549 2.667226,1.77777 -0.106736,1.51852 -0.05759,3.06174 0.217725,4.57261 0.877771,4.38973 1.108963,9.05819 3.305662,13.0627 0.772563,1.58953 2.226024,2.87587 4.022448,3.10798 3.03653,0.5584 6.442696,-1.29678 7.223294,-4.36758 1.377042,-5.11986 1.00366,-10.50508 2.194499,-15.65672 -0.103372,-1.14225 0.39062,-3.38485 1.938115,-2.83243 1.411953,0.7826 1.265876,2.60478 1.185041,3.97972 -0.09356,5.54836 0.569256,11.30415 -1.386271,16.62639 -1.960925,5.14535 -8.23788,8.20695 -13.465874,6.36732 -0.421538,-0.1505 -0.831573,-0.33337 -1.22461,-0.54758 z"
     id="path82"
     inkscape:connector-curvature="0" />
  <path
     style="opacity:1;fill:#333333;fill-opacity:1;stroke:none;stroke-width:0.6362288;stroke-linejoin:round;stroke-miterlimit:4;stroke-dasharray:none;stroke-opacity:1"
     d="m 69.398163,292.6522 c -0.53897,-2.91171 -0.502591,-5.89549 -0.603283,-8.84649 -0.02182,-3.76132 -0.116788,-7.54442 0.341887,-11.28486 -0.14341,-1.26171 1.508906,-2.95536 1.987658,-1.05257 1.603765,3.49621 1.720226,7.43522 1.79076,11.21741 0.0364,2.76514 -0.171147,5.63876 0.777113,8.28646 0.686655,1.93351 2.760017,2.76229 4.62202,3.10501 2.677949,0.60861 5.469037,0.61992 8.10711,1.40411 1.598129,0.17472 1.653899,2.27291 0.219164,2.76149 -2.097232,0.7656 -4.386832,0.60856 -6.573989,0.87473 -4.359256,0.167 -9.101996,-2.21718 -10.66844,-6.46529 z"
     id="path84"
     inkscape:connector-curvature="0" />
  <path
     style="opacity:1;fill:#333333;fill-opacity:1;stroke:none;stroke-width:0.6362288;stroke-linejoin:round;stroke-miterlimit:4;stroke-dasharray:none;stroke-opacity:1"
     d="m 94.582605,298.03032 c -1.320557,-7.41463 -1.185263,-15.52368 -1.952437,-22.44988 -3.012314,-1.68156 -6.946194,-0.56529 -9.506779,-2.51271 -0.798367,-1.44079 0.87959,-2.85279 2.2549,-2.86495 5.711305,-0.26103 11.446138,-0.83374 17.165731,-0.3352 2.17681,-0.4502 7.16464,2.19443 4.37935,3.66781 -2.70801,1.38179 -7.264555,-0.23288 -9.224994,1.87431 -1.979843,7.33948 0.100719,16.48586 -1.745394,23.08047 -0.237892,0.81858 -1.547282,0.25856 -1.370377,-0.45985 z"
     id="path86"
     inkscape:connector-curvature="0"
     sodipodi:nodetypes="ccccccccc" />
  <path
     style="opacity:1;fill:#333333;fill-opacity:1;stroke:none;stroke-width:0.84830511;stroke-linejoin:round;stroke-miterlimit:4;stroke-dasharray:none;stroke-opacity:1"
     d="m 149.1047,398.17122 c -0.82174,-1.35056 -1.55256,-31.16669 -0.83909,-34.23343 0.40786,-1.75312 1.28009,-3.07485 2.13822,-3.24011 1.33014,-0.25616 1.44935,1.17649 1.44935,17.41766 0,13.50179 -0.27067,18.06693 -1.14183,19.25832 -0.628,0.85885 -1.351,1.21775 -1.60665,0.79756 z"
     id="path88"
     inkscape:connector-curvature="0"
     transform="scale(0.75)" />
  <path
     style="opacity:1;fill:#333333;fill-opacity:1;stroke:none;stroke-width:0.6362288;stroke-linejoin:round;stroke-miterlimit:4;stroke-dasharray:none;stroke-opacity:1"
     d="m 124.50187,299.18211 c -1.86522,-0.0746 -3.73043,-0.14918 -5.59565,-0.22377 0.1836,-9.25208 0.0722,-18.51761 0.73603,-27.75365 0.85648,-1.32486 2.59024,-0.90212 3.91765,-0.97626 4.64512,-0.26066 9.4779,0.072 13.78166,1.98269 1.53557,0.75095 3.48627,1.56522 3.84076,3.45142 0.34979,1.52775 -1.05388,2.61973 -2.15245,3.39014 -1.22655,0.83126 -2.814,2.017 -2.47769,3.70641 0.38579,1.48555 1.80476,2.32101 2.8423,3.32665 1.35066,0.75495 2.48037,1.91665 2.46843,3.54913 0.41715,1.87174 0.32787,4.03706 -1.04614,5.51421 -1.65641,2.10573 -4.10669,3.84897 -6.86838,3.90642 -2.82266,0.16208 -5.64821,0.33031 -8.4753,0.15897 -0.32373,-0.0112 -0.64746,-0.0223 -0.97122,-0.0324 z m 13.26016,-8.13881 c 0.073,-2.41763 -2.06078,-4.30832 -4.24955,-4.89226 -1.1878,-0.72481 -2.89995,-0.098 -3.87713,-1.21286 -0.62841,-1.82434 2.12807,-2.25376 3.02956,-3.38227 1.2088,-1.201 2.58916,-2.82681 2.07159,-4.66152 -0.68852,-1.6376 -2.73022,-1.62885 -4.23428,-1.80553 -2.77513,-0.27003 -5.56695,-0.1882 -8.34962,-0.29938 0.0554,6.27126 -0.17507,12.55402 0.31323,18.81394 1.22534,1.40552 3.326,0.20919 4.90385,0.84575 2.89451,0.2504 5.98744,0.64673 8.71195,-0.60329 0.95855,-0.59436 1.67157,-1.653 1.6804,-2.80258 z"
     id="path90"
     inkscape:connector-curvature="0" />
  <path
     style="opacity:1;fill:#333333;fill-opacity:1;stroke:none;stroke-width:0.6362288;stroke-linejoin:round;stroke-miterlimit:4;stroke-dasharray:none;stroke-opacity:1"
     d="m 153.88201,271.70395 c 3.78066,-1.09693 8.27335,-1.10031 11.49321,1.4457 3.5631,2.92449 4.91965,7.61533 5.52741,12.01092 0.59829,4.23977 0.6434,8.54505 0.30955,12.80964 -0.93834,1.60161 -3.12864,0.0193 -3.24132,-1.38553 -0.68489,-1.86289 -0.74414,-3.87199 -0.91917,-5.81849 -0.62575,-1.69516 -2.68798,-2.04944 -4.28051,-2.00575 -2.33326,-0.0789 -4.94006,0.18204 -6.95344,-1.21442 -1.20847,-1.37986 0.69108,-3.44159 2.2475,-2.91604 2.3934,-0.0123 4.79078,-0.22779 7.13353,-0.72683 0.22147,-1.96331 -1.33781,-3.4497 -2.13247,-5.08897 -1.33714,-1.90187 -3.83947,-3.49573 -6.20038,-2.56574 -3.04053,1.24404 -4.34315,4.61871 -4.95073,7.61295 -1.03795,4.84374 -1.37831,9.91118 -3.47346,14.46642 -0.48724,1.8314 -2.36906,-0.22468 -1.75527,-1.34959 -0.23474,-2.02517 -0.56795,-4.04367 -0.47078,-6.09177 0.0526,-5.61534 1.18762,-11.4196 4.32115,-16.16392 0.89736,-1.21538 2.01348,-2.29021 3.34518,-3.01858 z"
     id="path92"
     inkscape:connector-curvature="0" />
  <path
     style="opacity:1;fill:#333333;fill-opacity:1;stroke:none;stroke-width:0.84830511;stroke-linejoin:round;stroke-miterlimit:4;stroke-dasharray:none;stroke-opacity:1"
     d="m 236.21599,398.07724 c -0.7935,-2.03842 -0.57266,-30.64585 0.26078,-33.78069 0.91098,-3.42653 3.50525,-3.60855 7.02963,-0.4932 1.56107,1.37989 6.45926,7.10466 10.88487,12.7217 10.68511,13.68574 9.13653,10.94879 10.19537,-2.03743 0.4825,-6.03827 1.08208,-11.64605 1.3324,-12.46173 0.76014,-2.47689 2.77375,-1.68828 3.24585,1.27119 2.87723,55.61977 -3.61675,35.31238 -24.57969,10.75148 -2.17681,-1.80659 -2.86381,0.44588 -2.9888,9.79937 -0.13915,10.41331 -0.674,13.01911 -2.98681,14.5519 -1.59998,1.06038 -1.86939,1.02407 -2.3936,-0.32259 z"
     id="path94"
     inkscape:connector-curvature="0"
     transform="scale(0.75)"
     sodipodi:nodetypes="ccccccccscc" />
  <path
     style="opacity:1;fill:#333333;fill-opacity:1;stroke:none;stroke-width:0.84830511;stroke-linejoin:round;stroke-miterlimit:4;stroke-dasharray:none;stroke-opacity:1"
     d="m 285.75665,398.67344 c -13.86945,-3.54565 -14.15607,-28.3938 -3.73099,-35.83669 5.90053,-2.81955 10.89406,-4.40832 17.28515,-3.05933 0,0.31227 0.76271,0.76722 1.69492,1.01099 2.39399,0.62605 2.23729,3.847 -0.21187,4.35476 -20.10911,-5.4108 -26.56408,23.39099 -8.90931,27.57137 2.04238,0.65385 4.70767,0.67306 6.57127,1.15913 5.15526,1.34247 5.5713,3.53471 0.90906,4.79012 -3.36704,0.54799 -4.75818,1.5055 -13.60823,0.01 z"
     id="path96"
     inkscape:connector-curvature="0"
     transform="scale(0.75)"
     sodipodi:nodetypes="cccccccccc" />
  <path
     style="opacity:1;fill:#333333;fill-opacity:1;stroke:none;stroke-width:0.6362288;stroke-linejoin:round;stroke-miterlimit:4;stroke-dasharray:none;stroke-opacity:1"
     d="m 240.22047,299.28008 c -6.53908,-1.07554 -11.66267,-7.47591 -11.39024,-14.07851 -0.55372,-6.3159 3.22764,-13.04671 9.35404,-15.13383 5.6307,-1.65006 12.29153,1.45272 14.46038,6.94732 1.04685,5.4399 1.35095,11.30873 -0.89661,16.50149 -2.30946,3.93974 -7.05667,6.03889 -11.52757,5.76353 z m 5.27947,-6.43546 c 5.13889,-3.87707 4.98444,-12.75452 -0.29399,-16.44356 -3.39811,-2.92327 -9.53603,-0.89091 -10.49347,3.49537 -1.14242,3.81125 -1.1949,8.26057 1.03336,11.69521 2.37764,2.69662 6.76152,3.1748 9.7541,1.25298 z"
     id="path98"
     inkscape:connector-curvature="0" />
</svg>
