<svg width="58" height="43" xmlns="http://www.w3.org/2000/svg">
 <g>
  <title>background</title>
  <rect x="-1" y="-1" width="15.333326" height="11.885052" id="canvas_background" fill="none"/>
 </g>

 <g>
  <title>Layer 1</title>
  <path d="m57.443915,-0.54071l-56.887831,0c-0.560751,0 -1.015854,0.447 -1.015854,1l0,44c0,0.553 0.455103,1 1.015854,1l56.887831,0c0.560751,0 1.015854,-0.447 1.015854,-1l0,-44c0,-0.553 -0.455103,-1 -1.015854,-1zm-41.650019,11c3.119688,0 5.657292,2.498 5.657292,5.569c0,3.07 -2.537604,5.568 -5.657292,5.568s-5.657292,-2.498 -5.657292,-5.568c0,-3.071 2.537604,-5.569 5.657292,-5.569zm37.319433,18.676c-0.378914,0.406 -1.021949,0.435 -1.435402,0.062l-11.439533,-10.324l-9.326557,10.054l4.883211,4.807c0.397199,0.391 0.397199,1.023 0,1.414s-1.039219,0.391 -1.436418,0l-10.464313,-10.3l-16.571628,14.362c-0.193012,0.167 -0.432754,0.249 -0.67148,0.249c-0.281392,0 -0.561767,-0.114 -0.762906,-0.339c-0.370787,-0.415 -0.330153,-1.047 0.091427,-1.412l17.28679,-14.982c0.402278,-0.348 1.009759,-0.329 1.389688,0.044l4.818196,4.743l9.949275,-10.727c0.181838,-0.196 0.435801,-0.313 0.705003,-0.325c0.268185,-0.006 0.532308,0.083 0.731415,0.262l12.190249,11c0.414468,0.372 0.441897,1.005 0.062983,1.412z" id="svg_1" stroke="null" fill="#4abdac"/>
  <g id="svg_2"/>
  <g id="svg_3"/>
  <g id="svg_4"/>
  <g id="svg_5"/>
  <g id="svg_6"/>
  <g id="svg_7"/>
  <g id="svg_8"/>
  <g id="svg_9"/>
  <g id="svg_10"/>
  <g id="svg_11"/>
  <g id="svg_12"/>
  <g id="svg_13"/>
  <g id="svg_14"/>
  <g id="svg_15"/>
  <g id="svg_16"/>
  <text xml:space="preserve" text-anchor="start" font-family="Euphoria, sans-serif" font-size="5" id="svg_17" y="10.050152" x="23.230795" stroke-opacity="null" stroke-width="0" stroke="null" fill="#ffffff">Adicionar Foto</text>
 </g>
</svg>