<?xml version="1.0" encoding="UTF-8" standalone="no"?>
<svg
   xmlns:dc="http://purl.org/dc/elements/1.1/"
   xmlns:cc="http://creativecommons.org/ns#"
   xmlns:rdf="http://www.w3.org/1999/02/22-rdf-syntax-ns#"
   xmlns:svg="http://www.w3.org/2000/svg"
   xmlns="http://www.w3.org/2000/svg"
   xmlns:sodipodi="http://sodipodi.sourceforge.net/DTD/sodipodi-0.dtd"
   xmlns:inkscape="http://www.inkscape.org/namespaces/inkscape"
   version="1.0"
   width="541.000000pt"
   height="197.362130pt"
   viewBox="0 0 541.000000 197.362130"
   preserveAspectRatio="xMidYMid meet"
   id="svg20"
   sodipodi:docname="sign2.svg"
   inkscape:export-filename="C:\Users\arlin\Documents\Andre\projects\andrerocha\src\images\sign2.png"
   inkscape:export-xdpi="1263.5"
   inkscape:export-ydpi="1263.5"
   inkscape:version="0.92.4 (5da689c313, 2019-01-14)">
  <defs
     id="defs24" />
  <sodipodi:namedview
     pagecolor="#ffffff"
     bordercolor="#666666"
     borderopacity="1"
     objecttolerance="10"
     gridtolerance="10"
     guidetolerance="10"
     inkscape:pageopacity="0"
     inkscape:pageshadow="2"
     inkscape:window-width="1366"
     inkscape:window-height="705"
     id="namedview22"
     showgrid="false"
     inkscape:zoom="1.3684673"
     inkscape:cx="544.69558"
     inkscape:cy="156.09042"
     inkscape:window-x="-8"
     inkscape:window-y="-8"
     inkscape:window-maximized="1"
     inkscape:current-layer="g18" />
  <metadata
     id="metadata2">
Created by potrace 1.12, written by Peter Selinger 2001-2015
<rdf:RDF>
  <cc:Work
     rdf:about="">
    <dc:format>image/svg+xml</dc:format>
    <dc:type
       rdf:resource="http://purl.org/dc/dcmitype/StillImage" />
    <dc:title></dc:title>
  </cc:Work>
</rdf:RDF>
</metadata>
  <g
     transform="translate(-9.000000,213.862130) scale(0.100000,-0.100000)"
     fill="#000000"
     stroke="none"
     id="g18">
    <path
       d="M4056 2124 c-327 -51 -697 -224 -889 -416 -74 -74 -47 -71 31 4 164 158 440 294 730 357 360 80 650 34 693 -109 16 -53 5 -99 -42 -169 -94 -141 -310 -280 -826 -531 -191 -93 -243 -115 -243 -101 0 20 59 262 96 394 14 51 34 101 44 112 37 39 65 155 41 169 -5 3 -14 0 -20 -8 -23 -28 -95 -260 -167 -540 -24 -93 -49 -173 -57 -177 -52 -30 -115 -81 -130 -107 -16 -27 -17 -35 -5 -59 7 -15 31 -40 54 -55 l40 -27 -37 -201 c-51 -278 -55 -310 -35 -310 23 0 32 28 51 165 20 135 53 316 59 322 2 2 50 -11 107 -31 177 -58 517 -135 540 -120 21 12 6 23 -48 34 -219 42 -444 103 -538 145 -48 21 -55 27 -50 47 3 13 12 57 20 98 9 41 21 80 28 87 7 7 134 70 283 141 601 286 827 453 875 645 29 117 -45 205 -203 242 -79 18 -280 18 -402 -1z m-623 -1137 c-9 -42 -22 -77 -28 -77 -6 0 -24 14 -40 30 -24 25 -27 34 -19 48 12 19 95 85 100 79 2 -2 -4 -38 -13 -80z"
       id="path4"
       style="fill:#ffffff" />
    <path
       d="M1112 1918 c-18 -13 -58 -52 -88 -88 -67 -78 -269 -380 -388 -579 l-86 -144 -103 -57 c-56 -31 -135 -78 -175 -103 -40 -26 -81 -47 -92 -47 -20 0 -90 -55 -90 -71 0 -22 42 -3 154 69 152 98 265 166 271 161 2 -3 -23 -52 -57 -109 -118 -205 -238 -427 -238 -441 0 -30 39 31 194 303 l161 283 65 32 c147 72 451 176 467 159 9 -9 -55 -296 -154 -689 -52 -208 -93 -390 -91 -405 l3 -27 17 25 c24 36 206 772 259 1046 13 70 19 74 128 74 31 0 63 5 71 11 11 7 -13 9 -83 7 l-99 -4 7 31 c47 228 68 481 46 548 -10 31 -17 37 -40 37 -14 0 -41 -10 -59 -22z m69 -50 c13 -50 -5 -247 -42 -441 l-21 -115 -40 -6 c-63 -10 -254 -74 -362 -122 -55 -24 -102 -42 -104 -39 -11 10 278 460 387 603 59 78 142 162 160 162 6 0 15 -19 22 -42z"
       id="path6"
       style="fill:#ffffff" />
    <path
       d="M4822 1868 c-28 -46 -82 -195 -143 -393 -72 -237 -124 -334 -239 -451 -81 -81 -150 -119 -212 -115 -28 2 -22 50 11 102 38 61 77 91 115 87 22 -2 31 2 34 15 4 21 -19 31 -54 23 -36 -9 -110 -80 -134 -130 -42 -88 -18 -146 53 -130 97 20 212 118 298 252 27 43 49 73 49 67 0 -5 -11 -62 -24 -125 -29 -135 -37 -231 -19 -237 6 -2 35 31 64 74 86 127 180 216 209 198 6 -3 10 -30 10 -59 0 -28 5 -57 12 -64 18 -18 88 -14 137 8 24 11 45 20 47 20 1 0 -4 -16 -12 -35 -20 -49 -18 -82 7 -95 43 -23 93 16 199 156 l45 59 3 -37 c4 -51 43 -82 93 -75 44 6 129 42 129 56 0 5 -18 1 -39 -10 -21 -10 -57 -21 -79 -25 -53 -8 -82 18 -82 76 0 54 -19 52 -67 -7 -66 -82 -156 -173 -170 -173 -43 0 -9 99 50 144 18 14 51 29 73 34 24 5 39 14 39 22 0 27 -66 12 -125 -28 -68 -47 -149 -82 -189 -82 -38 0 -55 29 -48 77 8 49 0 63 -38 63 -44 0 -101 -44 -176 -135 -34 -41 -64 -74 -66 -72 -5 6 34 205 62 317 13 52 43 145 66 205 137 364 167 455 149 455 -10 0 -27 -15 -38 -32z m-7 -84 c-14 -32 -24 -47 -21 -33 7 34 36 102 42 97 2 -3 -7 -31 -21 -64z m-60 -174 c-15 -45 -29 -79 -32 -76 -3 3 7 41 23 85 37 104 44 97 9 -9z"
       id="path8"
       style="fill:#ffffff" />
    <path
       d="M2115 1821 c-59 -35 -108 -109 -147 -221 -47 -134 -59 -204 -65 -360 -6 -174 -9 -184 -101 -282 -85 -91 -142 -108 -142 -43 0 77 106 175 190 175 20 0 29 4 24 11 -12 20 -87 0 -141 -37 -65 -44 -149 -77 -180 -69 -20 5 -23 12 -23 51 0 54 -14 84 -39 84 -34 0 -107 -59 -169 -139 -35 -45 -65 -81 -67 -81 -2 0 5 31 16 70 10 38 19 71 19 73 0 2 9 14 20 27 24 27 27 70 5 70 -20 0 -40 -41 -69 -142 -29 -100 -36 -159 -19 -165 7 -2 43 38 81 89 105 142 178 199 196 152 3 -9 6 -33 6 -54 0 -21 6 -43 15 -50 17 -14 74 -6 117 16 33 17 33 18 8 -31 -24 -47 -26 -88 -4 -109 20 -20 30 -20 79 3 37 17 109 86 163 156 l23 29 23 -29 c19 -24 32 -30 62 -29 22 0 54 7 73 17 19 9 36 16 38 14 2 -2 -1 -28 -7 -57 -22 -117 0 -122 50 -12 46 101 108 184 154 206 35 16 39 16 62 1 30 -20 48 -10 20 11 -54 39 -119 4 -203 -110 -24 -32 -43 -54 -43 -49 0 4 8 39 19 76 17 64 17 67 1 67 -13 0 -21 -14 -30 -51 -10 -39 -19 -55 -44 -70 -66 -40 -127 -33 -146 16 -8 20 3 44 72 157 159 261 264 511 243 580 -18 59 -80 76 -140 39z m93 -23 c19 -19 14 -103 -12 -170 -45 -121 -237 -475 -267 -494 -10 -6 -12 15 -9 106 6 217 105 497 194 551 35 22 76 25 94 7z"
       id="path10"
       style="fill:#ffffff" />
    <path
       d="M2515 1240 c-22 -23 -25 -30 -12 -30 16 0 54 46 45 55 -2 3 -17 -9 -33 -25z"
       id="path12"
       style="fill:#ffffff" />
    <path
       d="M4084 1151 c-29 -18 -94 -103 -94 -124 0 -6 -3 -8 -6 -5 -9 10 25 81 46 95 21 15 27 43 10 43 -20 0 -58 -51 -74 -97 -23 -66 -21 -165 2 -186 32 -30 71 -21 117 26 48 48 85 135 85 200 0 67 -28 83 -86 48z m64 -39 c7 -76 -63 -211 -118 -225 -25 -6 -60 24 -60 51 0 30 59 139 95 178 44 46 79 45 83 -4z"
       id="path14"
       style="fill:#ffffff" />
    <path
       d="M2438 1083 c-20 -21 -41 -48 -47 -60 -15 -29 -14 -96 1 -111 18 -18 71 -15 127 7 50 19 185 103 197 123 8 13 -2 7 -63 -34 -132 -89 -253 -114 -253 -53 0 47 17 72 53 79 77 14 121 86 54 86 -25 0 -42 -9 -69 -37z m72 9 c0 -9 -44 -32 -58 -32 -10 1 38 40 49 40 5 0 9 -4 9 -8z"
       id="path16"
       style="fill:#ffffff" />
  </g>
</svg>
